<svg width="60" height="60" viewBox="0 0 60 60" fill="none" xmlns="http://www.w3.org/2000/svg">
<path d="M0 30C0 13.4315 13.4315 0 30 0V0C46.5685 0 60 13.4315 60 30V30C60 46.5685 46.5685 60 30 60V60C13.4315 60 0 46.5685 0 30V30Z" fill="white"/>
<rect width="60" height="60" fill="white"/>
<circle cx="30" cy="30" r="22.6339" fill="#D12771"/>
<path d="M21.7593 39.7726L21.2989 39.5424C21.084 39.1741 20.9843 38.7675 20.9996 38.3224C21.015 37.8774 20.992 37.44 20.9306 37.0104V32.8439L20.8385 32.5217V25.8001L20.8845 24.5571L20.8385 24.511V21.9099L21.0687 21.4495C21.3142 21.2347 21.6211 21.1426 21.9894 21.1733C22.2657 21.2654 22.5573 21.3114 22.8642 21.3114H27.491L27.537 21.3574H29.7468L31.7265 21.5416H34.9952C35.4862 21.5723 35.9773 21.5876 36.4684 21.5876C36.9748 21.5876 37.4275 21.6951 37.8265 21.9099C38.0107 22.1247 38.1181 22.3856 38.1488 22.6925V24.6492L38.1948 24.6952V27.1352L38.2408 27.1812V32.5677L38.2869 32.6137V35.8364L38.2408 35.9054V37.9771C38.2102 38.2534 38.1181 38.4989 37.9646 38.7138C37.5963 38.8979 37.205 39.0207 36.7906 39.0821C36.3763 39.1434 35.962 39.2048 35.5476 39.2662C35.1793 39.2048 34.8417 39.0821 34.5348 38.8979C34.3506 38.6831 34.2739 38.4068 34.3046 38.0692L34.5348 37.6088C34.811 37.394 35.1333 37.3173 35.5016 37.3787L35.9389 37.4247L36.4454 37.3326L36.4914 35.6522V32.7979L36.4454 31.2326H34.3046L32.1408 31.4628H28.5038L22.634 31.2786V32.3375L22.7261 32.6598V36.8262L22.8181 39.0821L22.5879 39.5424C22.3731 39.7266 22.0969 39.8033 21.7593 39.7726ZM28.78 29.6673V29.5292L28.734 29.4831V27.3654L28.688 27.3194V23.1529L27.3068 23.1069H22.8642L22.634 23.0609V24.419L22.68 25.9382L22.634 25.9843V29.4831L24.1763 29.5292H26.0638L26.6623 29.6213H28.5499L28.78 29.6673ZM36.4454 29.4371V27.3654L36.3993 27.3194V24.8333L36.3533 23.3831L34.8571 23.3371H31.5884L30.4835 23.245V27.1812L30.5295 27.2273V29.299L30.5755 29.6673H32.0948L34.2586 29.4371H36.4454Z" fill="white"/>
</svg>
